<svg width="25" height="16" viewBox="0 0 25 16" fill="none" xmlns="http://www.w3.org/2000/svg">
<g clip-path="url(#clip0_1008_2405)">
<path d="M21.9348 0H1.99408C0.892778 0 0 0.89543 0 2V14C0 15.1046 0.892778 16 1.99408 16H21.9348C23.0361 16 23.9289 15.1046 23.9289 14V2C23.9289 0.89543 23.0361 0 21.9348 0Z" fill="#016FD0"/>
<path fill-rule="evenodd" clip-rule="evenodd" d="M13.8926 13.3938V7.69238L24.0101 7.70149V9.27638L22.8407 10.5298L24.0101 11.7947V13.403H22.143L21.1508 12.3048L20.1656 13.4071L13.8926 13.3938Z" fill="#FEFEFE"/>
<path fill-rule="evenodd" clip-rule="evenodd" d="M14.5684 12.7687V8.31982H18.3295V9.34471H15.7861V10.0404H18.2688V11.0482H15.7861V11.7315H18.3295V12.7687H14.5684Z" fill="#016FD0"/>
<path fill-rule="evenodd" clip-rule="evenodd" d="M18.3106 12.7686L20.3918 10.5416L18.3105 8.31982H19.9214L21.1931 9.72986L22.4684 8.31982H24.01V8.35483L21.9732 10.5416L24.01 12.7055V12.7686H22.4529L21.1587 11.3444L19.8777 12.7686H18.3106Z" fill="#016FD0"/>
<path fill-rule="evenodd" clip-rule="evenodd" d="M14.3642 2.63184H16.803L17.6596 4.58269V2.63184H20.6705L21.1897 4.09341L21.7107 2.63184H24.0098V8.33323H11.8594L14.3642 2.63184Z" fill="#FEFEFE"/>
<path fill-rule="evenodd" clip-rule="evenodd" d="M14.8275 3.25098L12.8594 7.69615H14.2093L14.5806 6.80598H16.5925L16.9636 7.69615H18.3471L16.3871 3.25098H14.8275ZM14.9967 5.80841L15.5869 4.39334L16.1767 5.80841H14.9967Z" fill="#016FD0"/>
<path fill-rule="evenodd" clip-rule="evenodd" d="M18.3281 7.69557V3.25049L20.2256 3.25703L21.202 5.98976L22.1847 3.25049H24.0109V7.69557L22.8358 7.706V4.65265L21.7265 7.69557H20.6539L19.5216 4.64222V7.69557H18.3281Z" fill="#016FD0"/>
</g>
<defs>
<clipPath id="clip0_1008_2405">
<rect width="23.9289" height="16" fill="white" transform="translate(0.169922)"/>
</clipPath>
</defs>
</svg>
