<svg width="25" height="16" viewBox="0 0 25 16" fill="none" xmlns="http://www.w3.org/2000/svg">
<g clip-path="url(#clip0_1008_2391)">
<path d="M23.4363 0H3.99408C2.89278 0 2 0.89543 2 2V13.5C2 14.6046 2.89278 15.5 3.99408 15.5H23.4363C24.5376 15.5 25.4304 14.6046 25.4304 13.5V2C25.4304 0.89543 24.5376 0 23.4363 0Z" fill="#FEFEFE" stroke="black" stroke-opacity="0.2" stroke-width="0.5"/>
<path d="M5.09298 5.91444C4.57139 5.62751 3.97611 5.39674 3.31055 5.23659L3.33846 5.11188H6.06734C6.43722 5.12489 6.73736 5.23651 6.83502 5.63071L7.42808 8.46659L7.60976 9.32073L9.27081 5.11188H11.0643L8.39831 11.2775H6.60473L5.09298 5.91444ZM12.3836 11.2841H10.6875L11.7483 5.11188H13.4443L12.3836 11.2841ZM18.5321 5.26277L18.3014 6.59559L18.148 6.53004C17.8411 6.40525 17.436 6.28054 16.8846 6.29371C16.215 6.29371 15.9146 6.56277 15.9077 6.82546C15.9077 7.11441 16.271 7.30484 16.8642 7.58725C17.8414 8.02719 18.2947 8.56557 18.2879 9.26819C18.2742 10.5486 17.1155 11.3761 15.3359 11.3761C14.575 11.3694 13.8421 11.2181 13.4442 11.0476L13.6816 9.66205L13.9049 9.76066C14.4563 9.99071 14.8192 10.089 15.4963 10.089C15.9847 10.089 16.5082 9.89838 16.5149 9.48488C16.5149 9.21565 16.2918 9.01851 15.6356 8.71646C14.9936 8.42087 14.1352 7.92848 14.1491 7.04198C14.1564 5.84042 15.3359 5 17.0108 5C17.6669 5 18.1976 5.13789 18.5321 5.26277ZM20.7864 9.09749H22.1962C22.1264 8.78889 21.8052 7.31147 21.8052 7.31147L21.6867 6.77964C21.6029 7.00943 21.4565 7.38373 21.4635 7.37056C21.4635 7.37056 20.9261 8.7429 20.7864 9.09749ZM22.88 5.11188L24.2483 11.284H22.6779C22.6779 11.284 22.5242 10.5748 22.4755 10.3581H20.2979C20.2349 10.5222 19.9419 11.284 19.9419 11.284H18.1622L20.6816 5.62399C20.8561 5.22342 21.1635 5.11188 21.5681 5.11188H22.88Z" fill="#332927"/>
</g>
<defs>
<clipPath id="clip0_1008_2391">
<rect width="23.9289" height="16" fill="white" transform="translate(0.3125)"/>
</clipPath>
</defs>
</svg>
